<svg width="63" height="57" viewBox="0 0 63 57" fill="none" xmlns="http://www.w3.org/2000/svg">
<g clip-path="url(#clip0_406_259)">
<path d="M0 11.7007C0.159078 10.9726 0.283193 10.2342 0.482477 9.51818C2.01557 3.99899 7.02214 0.0774124 12.8206 0.0360056C22.0891 -0.0295553 31.3575 0.0135769 40.626 0.0118516C43.6397 0.0118516 46.6552 0.00322514 49.6689 0.0118516C56.3257 0.032555 61.5735 4.34232 62.8007 10.8052C62.9248 11.4574 62.9825 12.132 62.9843 12.7962C62.9965 21.54 63.0105 30.2854 62.9843 39.0292C62.9738 42.1813 61.8567 44.9642 59.7747 47.3571C58.9846 48.2646 57.8238 48.5407 56.768 48.1215C55.7349 47.7108 55.0129 46.6757 55.1493 45.5818C55.2157 45.0487 55.4359 44.4587 55.7751 44.0463C57.1438 42.3831 57.7539 40.5181 57.7469 38.3822C57.719 29.9611 57.7434 21.5417 57.7312 13.1206C57.726 9.41984 55.4289 6.38851 51.9222 5.46893C51.1985 5.27915 50.4259 5.18598 49.6759 5.18598C37.5563 5.16873 25.4384 5.16701 13.3188 5.17736C8.70207 5.18081 5.26879 8.56582 5.26355 13.1188C5.25131 21.64 5.25306 30.1629 5.26355 38.6841C5.26879 43.2734 8.69683 46.6377 13.3608 46.6481C18.467 46.6584 23.5732 46.6481 28.6794 46.6532C30.0954 46.6532 31.0603 47.3451 31.3977 48.5666C31.8295 50.1314 30.702 51.7066 29.0605 51.7963C28.3857 51.8325 27.7075 51.8118 27.031 51.8118C22.4369 51.8118 17.8447 51.8291 13.2506 51.8084C6.90502 51.7808 1.72713 47.7074 0.312911 41.6603C0.19404 41.1513 0.103138 40.6354 0 40.123C0 30.6495 0 21.1759 0 11.7041L0 11.7007Z" fill="#5EA603"/>
<path d="M43.2988 51.8362C42.1118 53.37 40.9808 54.833 39.8445 56.2926C39.4232 56.8326 38.8638 57.0948 38.1733 56.9689C37.5493 56.855 37.0668 56.5134 36.8692 55.9009C36.7731 55.6007 36.7626 55.2643 36.7609 54.9451C36.7539 51.6654 36.7434 48.3873 36.7696 45.1093C36.7731 44.5589 36.6228 44.1914 36.2015 43.8119C32.9063 40.834 31.9099 36.2137 33.6562 32.2007C35.4183 28.1532 39.5858 25.6325 44.0312 25.931C48.2075 26.2105 51.9274 28.9589 53.221 32.915C54.5985 37.1281 53.5776 40.8133 50.3436 43.8757C49.98 44.2208 49.8472 44.5417 49.8489 45.0213C49.8682 48.32 49.8612 51.6188 49.8542 54.9193C49.8542 55.2402 49.8524 55.5766 49.7563 55.8768C49.5535 56.5117 49.0588 56.8688 48.4067 56.9758C47.7425 57.0862 47.1936 56.8343 46.788 56.315C45.7619 55.0003 44.7462 53.6788 43.7253 52.3624C43.603 52.2054 43.4736 52.0553 43.297 51.8379L43.2988 51.8362ZM43.2796 31.1086C40.3917 31.1224 38.0405 33.4532 38.0527 36.2896C38.065 39.1536 40.4616 41.4827 43.367 41.4551C46.2339 41.4292 48.6043 39.0466 48.5623 36.2327C48.5204 33.3687 46.1762 31.0948 43.2796 31.1086Z" fill="#5EA603"/>
<path d="M31.5114 18.1379C26.3038 18.1379 21.0944 18.1431 15.8868 18.1345C13.9324 18.131 12.6388 16.404 13.2874 14.6684C13.6247 13.7643 14.2838 13.2036 15.247 13.0173C15.5057 12.9672 15.7749 12.9483 16.0406 12.9483C26.3544 12.9448 36.6683 12.9431 46.9821 12.9517C47.3649 12.9517 47.767 13.0035 48.1271 13.1225C49.3263 13.5193 50.0028 14.6753 49.8298 15.9537C49.6707 17.1217 48.6166 18.081 47.3807 18.1258C46.4384 18.1603 45.4945 18.1362 44.5505 18.1362C40.2029 18.1362 35.8572 18.1362 31.5096 18.1362L31.5114 18.1379Z" fill="#5EA603"/>
<path d="M22.3268 23.3362C24.5399 23.3362 26.753 23.3155 28.9661 23.3431C30.2684 23.3604 31.3051 24.3196 31.4799 25.5756C31.6512 26.8127 30.8663 28.0152 29.6304 28.3775C29.3786 28.4517 29.1077 28.4845 28.8437 28.4845C24.4787 28.4896 20.1137 28.4965 15.7487 28.4827C14.5005 28.4793 13.5181 27.7064 13.2104 26.5711C12.9115 25.4652 13.3782 24.242 14.4114 23.7089C14.8624 23.476 15.42 23.3552 15.9322 23.3466C18.0632 23.3069 20.1941 23.3293 22.325 23.3293C22.325 23.331 22.325 23.3328 22.325 23.3345L22.3268 23.3362Z" fill="#5EA603"/>
<path d="M19.703 33.6845C20.9738 33.6845 22.2447 33.6776 23.5173 33.6845C25.0714 33.6948 26.2129 34.7697 26.2339 36.2293C26.2531 37.6992 25.1623 38.8414 23.6082 38.8621C21.0053 38.8983 18.4006 38.8948 15.796 38.8638C14.2122 38.8448 13.1091 37.694 13.1423 36.1948C13.1738 34.7455 14.3241 33.6914 15.8904 33.6828C17.1612 33.6759 18.4321 33.6828 19.7047 33.6828L19.703 33.6845Z" fill="#5EA603"/>
</g>
<defs>
<clipPath id="clip0_406_259">
<rect width="63" height="57" fill="white"/>
</clipPath>
</defs>
</svg>
