<svg width="55" height="69" viewBox="0 0 55 69" fill="none" xmlns="http://www.w3.org/2000/svg">
<path d="M39.2197 69C37.9894 68.4942 37.5908 67.5547 37.6089 66.2715C37.656 63.039 37.6143 59.8047 37.6361 56.5704C37.6397 56.088 37.4839 55.8216 37.0853 55.5444C32.9848 52.6953 31.1874 48.7573 32.077 43.8833C32.9305 39.2092 35.8821 36.2106 40.4899 34.8842C42.3218 34.3568 43.697 34.382 46.2646 34.8644C46.2791 34.6484 46.3062 34.4414 46.3062 34.2326C46.3081 27.6524 46.3226 21.0722 46.3026 14.492C46.2899 10.0663 43.351 6.62318 38.9787 5.86185C38.4931 5.77725 37.9876 5.76825 37.4929 5.76825C29.8502 5.76285 22.2056 5.75026 14.5628 5.77005C10.1398 5.78265 6.6935 8.68219 5.91255 13.0054C5.82195 13.5093 5.81108 14.0331 5.80927 14.5478C5.80383 25.9336 5.79659 37.3193 5.80927 48.7051C5.81289 53.0463 8.6051 56.4732 12.8161 57.3227C13.4974 57.4595 14.2076 57.4991 14.9052 57.5009C19.5184 57.5153 24.1317 57.5045 28.7449 57.5117C30.4481 57.5135 31.5969 58.4692 31.8197 60.035C32.039 61.5721 30.8522 63.0785 29.2903 63.2081C28.6833 63.2585 28.0708 63.2351 27.4602 63.2369C23.1858 63.2369 18.9114 63.2549 14.6389 63.2333C7.60672 63.1973 1.86466 58.6618 0.353502 51.9232C0.125197 50.9027 0.0219164 49.8336 0.0201045 48.7861C-0.00345082 37.3553 -0.00526276 25.9246 0.0092328 14.4938C0.0201045 6.3712 6.42714 0.0231858 14.6099 0.00878713C22.2309 -0.0038117 29.852 -0.00201187 37.4712 0.00878713C44.7607 0.0177863 50.6803 4.97273 51.9178 12.1181C52.0664 12.9748 52.099 13.8603 52.1008 14.7332C52.1135 22.4365 52.1027 30.1398 52.1244 37.8413C52.1244 38.2049 52.2766 38.6332 52.5031 38.9194C56.7249 44.2667 55.4602 51.9196 49.7127 55.5858C49.334 55.827 49.2144 56.0754 49.218 56.502C49.2343 59.7579 49.1963 63.0156 49.2434 66.2715C49.2615 67.5547 48.8629 68.4924 47.6326 69H46.6831C45.5833 68.1109 44.4834 67.2218 43.2151 66.1959C43.0103 66.4532 42.7893 66.8312 42.4776 67.1048C41.7311 67.7617 40.9411 68.3719 40.1692 69H39.2197ZM43.4669 40.2639C40.2707 40.2477 37.676 42.7728 37.6307 45.9423C37.5854 49.0776 40.1927 51.7216 43.351 51.7486C46.569 51.7738 49.1764 49.2324 49.2217 46.0233C49.2652 42.897 46.6523 40.2801 43.4669 40.2639Z" fill="#5EA603"/>
<path d="M25.9618 16.9971C22.2437 16.9971 18.5256 17.0065 14.8075 16.9915C13.4401 16.9859 12.3375 16.0158 12.0658 14.6487C11.7923 13.2759 12.3866 11.9013 13.5751 11.3339C13.9993 11.1298 14.5007 11.0174 14.967 11.0155C22.3156 10.9968 29.6642 10.9968 37.0128 11.0062C38.7413 11.008 40.0122 12.3171 39.9999 14.0194C39.9876 15.7386 38.7255 16.9915 36.9847 16.9934C33.3104 16.999 29.6361 16.9934 25.9618 16.9934V16.9971Z" fill="#5EA603"/>
<path d="M26.003 28.9912C22.3063 28.9912 18.6079 29.0043 14.9112 28.9855C12.9488 28.9761 11.6564 27.257 12.0808 25.2819C12.3473 24.0448 13.3645 23.109 14.5482 23.0167C14.7007 23.0054 14.8533 23.0017 15.0076 23.0017C22.3361 23.0017 29.6664 22.9979 36.9949 23.0017C38.575 23.0017 39.6763 23.9168 39.9463 25.4174C40.2725 27.2288 39.0748 28.9121 37.3579 28.9704C35.8498 29.0232 34.3399 28.9893 32.83 28.9893C30.5555 28.9893 28.2793 28.9893 26.0048 28.9893L26.003 28.9912Z" fill="#5EA603"/>
<path d="M18.9965 34.0044C20.3491 34.0044 21.7036 33.9969 23.0563 34.0044C24.7436 34.0156 25.9876 35.2705 25.9999 36.963C26.0122 38.6574 24.7927 39.9628 23.1036 39.9797C20.3754 40.0077 17.6455 40.0058 14.9174 39.9797C13.2388 39.9647 11.993 38.6481 12 36.9761C12.007 35.263 13.2686 34.0081 15.0015 34.0025C16.3332 33.9969 17.6648 34.0025 18.9965 34.0025V34.0044Z" fill="#5EA603"/>
</svg>
