<svg width="56" height="69" viewBox="0 0 56 69" fill="none" xmlns="http://www.w3.org/2000/svg">
<g clip-path="url(#clip0_406_237)">
<path d="M0 68.9998V60.3763C0.287933 60.3763 0.52298 60.3763 0.760965 60.3763C2.72655 60.3763 4.69213 60.3822 6.65771 60.3763C9.0787 60.3704 10.7975 58.8342 11.1383 56.4353C12.0021 50.3052 12.8835 44.178 13.7591 38.0479C13.7885 37.8529 13.7943 37.6521 13.8149 37.3803H6.66065C6.82518 36.1542 6.97503 35.0109 7.13662 33.8676C7.34816 32.358 7.58909 30.8513 7.77125 29.3358C7.83295 28.8365 8.03862 28.7242 8.50283 28.7302C10.489 28.7538 12.4781 28.7272 14.4642 28.7508C14.9402 28.7567 15.0988 28.6297 15.1694 28.1304C15.9891 22.2662 16.7618 16.3931 17.6991 10.5466C18.6451 4.65578 24.0512 0.0914257 29.9861 0.0146146C32.3484 -0.0149281 34.7106 0.00870608 37.1169 0.00870608V8.62928C36.8965 8.62928 36.6644 8.62928 36.4294 8.62928C34.4638 8.62928 32.4982 8.62632 30.5326 8.62928C28.1234 8.63518 26.4076 10.0739 26.0462 12.4816C25.5085 16.0534 25.0267 19.631 24.5213 23.2086C24.2657 25.0255 24.0071 26.8394 23.7398 28.7272H29.5131C29.1018 31.6342 28.6993 34.4614 28.2909 37.3478H22.5175C22.3324 38.6388 22.1532 39.8766 21.974 41.1115C21.1337 46.9492 20.4168 52.8104 19.4178 58.6215C18.4835 64.0514 13.9824 68.1342 8.54103 68.8787C8.41469 68.8964 8.29423 68.9585 8.17083 68.9998H0Z" fill="#5EA603"/>
<path d="M28.814 69C28.9285 68.7873 29.0255 68.5627 29.1577 68.3618C31.7168 64.4711 34.2759 60.5773 36.8555 56.7013C37.1229 56.2995 37.1141 56.0337 36.8526 55.6378C34.2377 51.7027 31.6433 47.7528 29.0431 43.8089C28.9227 43.6257 28.8081 43.4366 28.6436 43.1737C28.8904 43.153 29.0755 43.1264 29.2576 43.1264C32.2721 43.1264 35.2836 43.1353 38.2981 43.1146C38.73 43.1146 38.9798 43.2446 39.2148 43.608C40.2138 45.1708 41.248 46.71 42.3174 48.3319C42.5231 48.0453 42.6906 47.8208 42.8463 47.5844C43.7365 46.2402 44.6091 44.8842 45.5199 43.5548C45.658 43.3539 45.9548 43.1442 46.1781 43.1412C49.3923 43.1146 52.6066 43.1264 55.8209 43.1294C55.8591 43.1294 55.8973 43.156 55.9942 43.1944C55.8679 43.4071 55.7533 43.6109 55.624 43.8089C53.0268 47.7558 50.4324 51.7027 47.8146 55.6378C47.5502 56.0366 47.5472 56.3025 47.8146 56.7013C50.3942 60.5803 52.9504 64.474 55.5095 68.3648C55.6446 68.5686 55.7563 68.7873 55.8767 68.997H45.5581C45.2731 68.5214 44.9999 68.0369 44.7002 67.573C43.9363 66.3972 43.1548 65.2303 42.3292 63.9807C41.5036 65.2303 40.725 66.3943 39.964 67.5701C39.6643 68.031 39.4058 68.5184 39.1267 68.9941H28.8081L28.814 69Z" fill="#5EA603"/>
</g>
<defs>
<clipPath id="clip0_406_237">
<rect width="56" height="69" fill="white"/>
</clipPath>
</defs>
</svg>
