<svg width="47" height="69" viewBox="0 0 47 69" fill="none" xmlns="http://www.w3.org/2000/svg">
<g clip-path="url(#clip0_406_256)">
<path d="M12.206 69C11.9908 68.9389 11.7775 68.8687 11.5605 68.8165C8.19736 68.023 5.88414 65.1854 5.87862 61.7774C5.86575 54.1913 5.86943 46.6052 5.88414 39.0191C5.88414 38.4505 5.74071 38.0151 5.36192 37.5688C-5.94861 24.2518 1.59971 3.67972 18.982 0.424685C31.8445 -1.98466 44.124 6.09806 46.555 18.7152C47.9102 25.7489 46.1523 32.0988 41.5552 37.6894C41.3088 37.9881 41.1286 38.4379 41.1286 38.8176C41.1047 46.3371 41.0551 53.8548 41.1323 61.3726C41.1764 65.6154 38.1203 68.4764 34.9502 68.9011C34.8895 68.9101 34.8362 68.9659 34.7792 69H32.8521C30.8294 68.6762 29.2481 67.5606 27.7347 66.301C26.7068 65.4463 25.6366 64.6384 24.5756 63.8215C23.7868 63.2151 23.191 63.2169 22.4095 63.8215C21.4037 64.5988 20.3924 65.3689 19.4123 66.1768C17.8438 67.467 16.2348 68.6708 14.133 69H12.206ZM23.4797 40.2769C33.2181 40.2679 41.1157 32.5288 41.1084 23.003C41.101 13.5276 33.2401 5.81376 23.5735 5.79757C13.7487 5.78138 5.85656 13.5042 5.87311 23.1164C5.88966 32.5432 13.8352 40.2859 23.4779 40.2769H23.4797ZM35.226 42.9669C27.3578 47.0389 19.5833 47.0209 11.7886 42.9831C11.7757 43.226 11.761 43.3826 11.761 43.5373C11.761 49.531 11.7628 55.5228 11.7555 61.5165C11.7555 62.1931 11.9007 62.7725 12.5737 63.0855C13.267 63.4094 13.848 63.1701 14.4052 62.7275C15.81 61.6083 17.2351 60.5125 18.6455 59.4005C21.6887 57.0037 25.2818 57.0019 28.3452 59.4005C29.8144 60.5503 31.2763 61.7054 32.7547 62.8444C33.4314 63.3662 34.2735 63.4166 34.7351 62.848C35.0311 62.4846 35.2058 61.9232 35.2077 61.4499C35.2389 55.5246 35.2279 49.5994 35.2279 43.6723C35.2279 43.4725 35.2279 43.271 35.2279 42.9651L35.226 42.9669Z" fill="#5EA603"/>
</g>
<defs>
<clipPath id="clip0_406_256">
<rect width="47" height="69" fill="white"/>
</clipPath>
</defs>
</svg>
