<svg width="73" height="76" viewBox="0 0 73 76" fill="none" xmlns="http://www.w3.org/2000/svg">
<path d="M8.87457 76.0005C6.99274 75.356 6.19986 74.0273 6.33698 72.07C6.39063 71.3085 6.34493 70.5391 6.34493 69.6507C5.25597 69.6507 4.20079 69.6725 3.14561 69.6467C1.49429 69.607 0.282127 68.5282 0.033733 66.916C-0.232545 65.1867 1.07699 63.5169 2.82568 63.3702C3.14561 63.3424 3.46952 63.3464 3.79144 63.3464C10.659 63.3464 17.5246 63.3464 24.3922 63.3464H25.3282V57.0005C25.0798 57.0005 24.8195 57.0005 24.5572 57.0005C20.6147 57.0005 16.6741 57.0084 12.7316 56.9946C11.1777 56.9886 9.91981 55.9752 9.60584 54.5355C9.2879 53.0799 9.95161 51.6224 11.2949 51.0135C11.7758 50.7954 12.3421 50.6705 12.8707 50.6685C23.3331 50.6487 33.7935 50.6487 44.2558 50.6606C46.233 50.6625 47.6022 52.0289 47.5783 53.8871C47.5545 55.6936 46.1595 56.9946 44.2181 56.9965C40.3511 57.0025 36.4841 56.9985 32.6171 56.9985H31.7924V63.3107C32.0805 63.3226 32.323 63.3424 32.5654 63.3424C36.9789 63.3424 41.3903 63.3603 45.8038 63.3405C55.8071 63.2929 64.0399 56.6832 66.184 46.9978C68.6302 35.95 61.1943 24.6345 50.0464 22.5958C47.9678 22.2151 45.8098 22.2429 43.6855 22.1655C41.8573 22.0981 40.0232 22.1516 38.0678 22.1516C38.0678 22.4947 38.0678 22.7783 38.0678 23.0639C38.0678 28.9279 38.0678 34.7899 38.0678 40.6539C38.0678 43.1308 36.8557 44.3424 34.3777 44.3444C30.4848 44.3444 26.594 44.3464 22.7012 44.3444C20.2848 44.3444 19.0309 43.0951 19.0289 40.6856C19.0269 32.547 19.017 24.4064 19.0329 16.2678C19.0408 11.9605 20.9962 8.87087 24.9308 7.03651C25.1454 6.93735 25.356 6.58436 25.3679 6.34044C25.4156 5.30329 25.3779 4.26216 25.3918 3.22501C25.4116 1.41444 26.753 0.0302462 28.4937 0.000499856C30.2484 -0.0292465 31.6354 1.27166 31.7268 3.10007C31.7805 4.18681 31.7189 5.27751 31.7606 6.36424C31.7705 6.5923 31.9593 6.92546 32.1541 7.0147C35.8104 8.71222 37.8174 11.5262 38.0619 15.5638C38.0638 15.6114 38.0857 15.659 38.1235 15.8018C38.354 15.8137 38.6143 15.8395 38.8766 15.8395C41.4301 15.8474 43.9836 15.8077 46.5371 15.8613C59.6304 16.1329 70.5577 25.63 72.6582 38.534C74.9354 52.5286 65.5919 66.1346 51.6897 69.0299C50.9704 69.1807 50.6862 69.4365 50.7697 70.1742C50.8353 70.7612 50.7458 71.3621 50.7896 71.953C50.9346 73.9123 50.1934 75.3084 48.2917 75.9965H46.9524C45.0705 75.354 44.2797 74.0234 44.4148 72.068C44.4684 71.2887 44.4227 70.5034 44.4227 69.6963H12.7038C12.7038 70.4796 12.6601 71.2193 12.7118 71.953C12.8509 73.9123 12.1136 75.3064 10.2119 75.9965H8.87258L8.87457 76.0005ZM31.6672 37.9708C31.705 37.8379 31.7308 37.7923 31.7308 37.7447C31.7348 30.4469 31.7586 23.1511 31.705 15.8533C31.699 15.1493 31.3353 14.3541 30.9081 13.7691C30.1371 12.7101 28.7163 12.4147 27.4862 12.8569C26.1807 13.3289 25.3878 14.4791 25.3858 15.9565C25.3799 23.1055 25.3838 30.2545 25.3858 37.4036C25.3858 37.592 25.4196 37.7784 25.4375 37.9688H31.6672V37.9708Z" fill="#5EA603"/>
</svg>
